<?xml version="1.0" encoding="UTF-8"?>
<svg id="Layer_1" data-name="Layer 1" xmlns="http://www.w3.org/2000/svg" viewBox="0 0 1080 1080">
  <defs>
    <style>
      .cls-1 {
        fill: #e6b8c0;
        stroke-width: 0px;
      }
    </style>
  </defs>
  <path class="cls-1" d="M739.33,500.83c.69-.11,1.1.19,1.19.88.11.69-.19,1.08-.88,1.18-7.92,1.22-16.04,2.02-24.34,2.41-8.31.38-16.52.04-24.6-1-8.1-1.06-16-2.95-23.73-5.64s-14.88-6.55-21.45-11.52c-4.84,4.09-10.13,7.49-15.88,10.22-5.76,2.73-11.91,4.6-18.45,5.6-2.76.42-5.95.59-9.56.53-3.63-.07-7.14-.59-10.55-1.56-3.41-.99-6.38-2.56-8.92-4.72-2.53-2.17-4.09-5.15-4.66-8.94-.64-4.13-.16-8.51,1.41-13.18,1.59-4.63,4.02-9.49,7.3-14.58,3.28-5.07,7.24-10.31,11.87-15.69,4.63-5.39,9.62-10.86,14.93-16.43-.79-6.39-.95-13.51-.47-21.34.47-7.82,1.63-15.8,3.48-23.91,1.84-8.12,4.33-16.04,7.48-23.74,3.13-7.71,6.96-14.72,11.45-21.04,4.5-6.33,9.68-11.62,15.56-15.86,5.87-4.25,12.34-6.9,19.4-7.99,2.75-.42,5.59-.58,8.51-.5,2.92.09,5.6.6,8.04,1.54,2.42.95,4.5,2.44,6.22,4.48,1.72,2.02,2.84,4.67,3.33,7.94.77,5.01.15,10.24-1.82,15.74-1.98,5.51-4.86,11.18-8.63,17.05-3.78,5.86-8.37,11.81-13.8,17.82-5.42,6.04-11.15,12.07-17.19,18.1-6.05,6.04-12.3,12.1-18.77,18.21-6.47,6.08-12.7,12.07-18.68,17.91,1.58,10.33,4.58,19.92,9.02,28.76,4.43,8.84,10.83,16.5,19.23,22.97,7.6-6.81,13.67-14.95,18.21-24.45s6.97-19.57,7.28-30.19c-.08-.53.14-.82.67-.91.68-.1,1.07.2,1.18.89-.26,10.97-2.65,21.33-7.14,31.09-4.5,9.76-10.64,18.05-18.4,24.89,6.55,4.81,13.58,8.5,21.12,11.05,7.51,2.54,15.23,4.32,23.14,5.32,7.9.97,15.93,1.29,24.07.94,8.14-.36,16.08-1.14,23.83-2.32ZM607.49,501.15c.68-.11,1.29-.16,1.82-.16.54.01,1.14-.03,1.83-.14,6.2-.94,12.05-2.71,17.56-5.32,5.5-2.6,10.51-5.83,15.04-9.69-8.02-6.35-14.41-13.84-19.16-22.46-4.74-8.61-8.14-17.87-10.19-27.78-5.05,5-9.77,9.91-14.14,14.71-4.38,4.81-8.17,9.44-11.36,13.9-3.2,4.45-5.59,8.69-7.18,12.72s-2.11,7.77-1.59,11.22c.47,3.09,1.68,5.56,3.64,7.38,1.94,1.8,4.27,3.18,6.97,4.09s5.5,1.45,8.44,1.61c2.94.18,5.71.14,8.33-.07ZM671.83,316.61c-6.17,1.11-11.87,3.82-17.13,8.16-5.24,4.32-9.98,9.62-14.22,15.92-4.24,6.28-7.96,13.28-11.2,21-3.22,7.71-5.84,15.38-7.85,23-2,7.62-3.44,14.98-4.29,22.06-.85,7.1-1.06,13.24-.62,18.47,8.69-8.91,17.77-17.87,27.22-26.89,9.46-9.02,18.04-17.72,25.75-26.14,7.7-8.39,13.88-16.43,18.51-24.1,4.66-7.66,6.5-14.6,5.55-20.8-.42-2.75-1.37-4.9-2.84-6.44-1.47-1.53-3.19-2.69-5.15-3.44-1.97-.74-4.18-1.17-6.66-1.23-2.49-.07-4.84.09-7.08.43Z"/>
  <path class="cls-1" d="M574.98,231.54c4.63-5.01,8.9-8.41,12.8-10.22,4.69-2.18,7.62-1.97,8.84.64,1.08,2.32.38,5.6-2.11,9.74-2.49,4.17-6.01,8.67-10.57,13.46-4.56,4.83-9.73,9.68-15.52,14.58-5.77,4.91-11.41,9.27-16.91,13.08-9.67,20-17.85,43.73-24.53,71.18-6.67,27.46-13.11,56.94-19.34,88.45-6.2,31.52-12.85,64.49-19.92,98.93-7.07,34.43-15.77,68.75-26.09,102.97,12.66-3.35,30.65-5.04,40.78-10.92,8.11-4.7,13.34-12.96,21.48-17.72,8.66-5.06,17.5-10.91,23.48-15.74,5.97-4.84,13.19-6.34,15.15-7.53.13-.39.35-.39.88-.63,1.04-.48.94-1.07,1.3-.29s-.17.32-.84,1.59c-5.25,2.1-8.14,4.97-15.24,8.29-8.15,3.81-18.45,13.08-25.28,15.95-1.16.49-13.41,12.97-21.18,19.17-9.39,7.49-28.57,8.43-41.61,11.66-9.03,28.87-19.74,57.16-32.12,84.91-12.41,27.75-27.29,53.89-44.65,78.4-17.37,24.53-37.63,46.92-60.79,67.17-23.15,20.27-50.05,37.52-80.74,51.79-19.75,9.19-38.07,14.87-54.94,17.02-16.87,2.15-31.99,1.59-45.37-1.67-13.36-3.26-24.85-8.92-34.44-16.96-9.59-8.03-16.98-17.63-22.18-28.8-6.29-13.52-9.06-28.83-8.33-45.96.74-17.1,5.53-34.51,14.37-52.22,8.84-17.7,22.05-34.84,39.65-51.41,17.6-16.56,40.04-31.19,67.35-43.88,12.73-5.93,28.8-11.34,48.17-16.26,19.39-4.92,40.34-9.66,62.85-14.28,22.52-4.63,45.68-9.23,69.47-13.82,23.79-4.58,46.55-9.39,68.25-14.42,9.22-31.82,17.4-64.07,24.47-96.78,7.08-32.71,14.11-64.67,21.08-95.91,6.99-31.23,14.54-61.06,22.64-89.51,8.12-28.44,18.03-54.54,29.73-78.35-12.19,9.16-25.02,18.28-38.48,27.39-13.47,9.13-26.36,18.83-38.65,29.13-12.27,10.31-23.21,21.64-32.8,33.99-9.59,12.38-16.59,26.39-21.01,42.03-4.41,15.67-5.49,33.24-3.22,52.74,2.27,19.51,9.09,41.47,20.46,65.9,1.7,3.65,3.48,7.48,5.35,11.5,1.88,4.03,4.04,8.02,6.5,11.93.73,1.56.7,2.52-.08,2.89-.78.36-1.84-.57-3.2-2.79-1.34-2.21-2.84-4.75-4.49-7.64-1.65-2.86-3.18-5.8-4.57-8.79-1.39-2.98-2.38-5.13-2.99-6.44-11.85-25.47-18.81-48.23-20.87-68.31-2.07-20.08-.6-38.16,4.41-54.24,5.01-16.09,12.63-30.47,22.86-43.14,10.24-12.66,21.82-24.3,34.76-34.9,12.93-10.6,26.32-20.55,40.2-29.84,13.85-9.3,26.88-18.51,39.06-27.66,4.71-7.58,9-14.62,12.92-21.2,3.9-6.56,8.51-12.65,13.79-18.27ZM240.98,917.75c29.12-13.55,54.53-30.13,76.26-49.72,21.72-19.59,40.72-41.31,56.98-65.16,16.26-23.86,30.13-49.43,41.62-76.76,11.48-27.33,21.54-55.49,30.19-84.49-21.44,4.91-43.93,9.61-67.46,14.07-23.54,4.48-46.45,8.96-68.7,13.46-22.25,4.49-43.01,9.17-62.27,14.01-19.24,4.85-35.24,10.24-47.97,16.17-26.78,12.46-48.8,26.81-66.08,43.06-17.25,16.25-30.27,32.97-39.03,50.17-8.75,17.2-13.5,34.2-14.23,50.98-.73,16.78,1.98,31.8,8.15,45.07,5.08,10.91,12.26,20.22,21.54,27.92,9.27,7.71,20.41,13.11,33.41,16.26,12.99,3.11,27.69,3.62,44.11,1.52,16.41-2.1,34.24-7.61,53.48-16.56ZM588.54,235.19c4.26-5.77,6.04-9.45,5.31-11.01-.48-1.03-1.9-1.01-4.24.08-5.98,2.78-12.09,8.33-18.36,16.61-6.27,8.29-11.77,16.85-16.51,25.7,6.82-5.06,13.11-10.2,18.91-15.44,5.8-5.21,10.76-10.54,14.89-15.94Z"/>
  <path class="cls-1" d="M975.61,141.42c.94.88,1.46,1.46,1.56,1.73,1.08,2.98-.3,7.39-4.14,13.24-3.85,5.85-8.69,12.13-14.52,18.86-5.84,6.73-11.84,13.36-18.04,19.9-6.2,6.56-10.93,12.1-14.18,16.66-11.74,23.3-22.7,48.15-32.86,74.55-10.14,26.4-19.04,53.11-26.67,80.1-7.65,27.01-13.85,53.74-18.63,80.16-4.78,26.43-7.8,51.38-9.06,74.83,3.89-1.11,7.81-2.31,11.8-3.62,3.97-1.27,7.84-2.63,11.64-4.01,6.76-2.46,13.26-5.06,19.47-7.78,6.21-2.74,12.18-5.9,17.92-9.53,17.22-9.96,30.7-22.22,40.4-36.8.44-.47,1.12-1.8,2.02-3.94.89-2.18,1.86-4.37,2.89-6.58,1.03-2.22,2.04-4.27,3.03-6.18,1-1.88,1.76-2.94,2.31-3.13,1.36-.49,2.28-.07,2.77,1.28-2.53,7.37-5.92,14.3-10.17,20.73-4.24,6.46-9.2,12.41-14.89,17.85-8.6,8.37-18.47,15.56-29.6,21.6-11.14,6.07-23.2,11.45-36.19,16.19-1.62.59-3.88,1.35-6.78,2.23-2.88.9-8.59,2.74-17.07,5.53-.85,22.1-.34,45.13,1.51,69.15,1.85,24.01,6.62,46.57,14.32,67.68,5.63,15.44,12.83,28.68,21.61,39.74,8.77,11.05,18.92,19.7,30.39,25.95,11.47,6.24,24.18,9.97,38.11,11.17,13.93,1.21,28.81-.46,44.64-5,1.72-.33,4.32-1.21,7.79-2.62,3.46-1.41,5.46-1.46,5.95-.1.39,1.08.18,1.79-.64,2.08-19.21,7.01-36.95,10.08-53.2,9.27-16.26-.83-31.03-4.79-44.36-11.9-13.32-7.11-24.98-17.2-34.96-30.27-9.98-13.08-18.17-28.43-24.58-46.01-7.21-19.76-11.97-40.64-14.32-62.63s-3.25-43.21-2.73-63.64c-10.42,2.57-20.96,4.96-31.65,7.15-10.7,2.22-21.54,4.25-32.51,6.11-7.48,16.52-15.51,33.78-24.12,51.8-8.61,18.02-17.78,35.99-27.5,53.93-9.71,17.97-19.97,35.27-30.75,51.94-10.8,16.65-22.06,32.02-33.8,46.12-11.73,14.09-23.93,26.28-36.57,36.56-12.66,10.3-25.77,17.91-39.29,22.84-13.54,4.93-26.07,7.35-37.61,7.26-11.52-.09-21.87-2.16-31-6.19-9.13-4.02-17-9.83-23.59-17.39-6.58-7.56-11.67-16.21-15.22-25.95-5.32-14.64-7.19-30.9-5.6-48.8,1.61-17.9,7.22-35.73,16.84-53.5s23.61-34.52,41.95-50.26c18.34-15.72,41.58-28.72,69.75-38.99,10-3.65,21.26-6.82,33.76-9.55,12.51-2.71,25.93-5.23,40.27-7.54,14.33-2.31,29.31-4.56,44.94-6.73,15.61-2.16,31.22-4.55,46.83-7.16,5.82-13.46,11.23-26.18,16.22-38.12,5.01-11.95,9.74-22.72,14.22-32.32l5.27-12.05c8.64-20.01,17.95-40.96,27.92-62.85,9.97-21.87,20.5-43.64,31.6-65.34,11.12-21.67,22.97-42.78,35.57-63.33,12.6-20.53,25.81-39.61,39.63-57.23,2.85-5.63,6.18-12.06,9.99-19.28,3.81-7.2,7.82-14.04,12.07-20.5s8.6-12.17,13.06-17.19c4.47-4.98,8.86-8.28,13.19-9.87,1.63-.59,2.82-.69,3.55-.36ZM570.8,801.4c12.17-4.44,24.11-11.62,35.83-21.56,11.7-9.96,23.05-21.75,34.03-35.41,10.95-13.66,21.56-28.72,31.82-45.18,10.24-16.46,20.05-33.53,29.4-51.2,9.36-17.67,18.21-35.46,26.55-53.38,8.34-17.9,16.11-35.08,23.31-51.5-15.34,2.52-30.59,4.85-45.74,7.01-15.16,2.16-29.83,4.43-43.98,6.82s-27.41,4.94-39.78,7.6c-12.37,2.66-23.56,5.82-33.58,9.46-27.61,10.07-50.4,22.83-68.39,38.26-17.99,15.46-31.69,31.89-41.15,49.29-9.45,17.4-14.98,34.81-16.61,52.28-1.6,17.45.15,33.21,5.29,47.3,3.45,9.46,8.29,17.74,14.56,24.81,6.27,7.08,13.78,12.53,22.53,16.39,8.77,3.86,18.7,5.84,29.76,5.95,11.09.1,23.11-2.22,36.12-6.96ZM833.44,466.93c3.6-24.62,7.96-47.13,13.09-67.56,5.14-20.43,11.03-39.97,17.71-58.66,6.69-18.69,14.22-37.15,22.6-55.39,8.38-18.23,17.48-37.42,27.32-57.57-12.44,18.03-24.19,37.56-35.22,58.61-11.04,21.04-21.5,42.41-31.37,64.11-9.88,21.69-19.31,43.14-28.29,64.36-8.99,21.22-17.51,40.96-25.57,59.22-3.87,8.77-8.11,18.59-12.72,29.48-4.62,10.89-9.68,22.24-15.18,34.06,10.7-1.75,21.26-3.68,31.69-5.81,10.43-2.11,20.66-4.54,30.7-7.27.44-10.58,1.11-20.73,2.03-30.4.91-9.69,1.98-18.74,3.21-27.18ZM973.17,147.36c.96-1.57,1.35-2.62,1.14-3.17-3.52,1.28-7.08,3.74-10.66,7.33-3.59,3.62-7.16,7.91-10.72,12.87-3.55,4.98-6.9,10.28-10.08,15.87-3.18,5.61-6.1,11.04-8.79,16.31,2.83-3.18,6.24-6.87,10.23-11.09,3.98-4.21,7.87-8.47,11.67-12.77,3.8-4.28,7.28-8.62,10.44-13,3.17-4.36,5.43-8.48,6.77-12.36Z"/>
</svg>